<mxfile host="app.diagrams.net" modified="2024-04-15T09:06:36.398Z" agent="Mozilla/5.0 (Windows NT 10.0; Win64; x64) AppleWebKit/537.36 (KHTML, like Gecko) Chrome/123.0.0.0 Safari/537.36" etag="RuqmLuUxj8tyvKHElERb" version="24.2.3" type="github">
  <diagram id="R2lEEEUBdFMjLlhIrx00" name="Page-1">
    <mxGraphModel dx="1909" dy="560" grid="1" gridSize="10" guides="1" tooltips="1" connect="1" arrows="1" fold="1" page="1" pageScale="1" pageWidth="850" pageHeight="1100" math="0" shadow="0" extFonts="Permanent Marker^https://fonts.googleapis.com/css?family=Permanent+Marker">
      <root>
        <mxCell id="0" />
        <mxCell id="1" parent="0" />
        <mxCell id="yIHm4vUGplaozeDYIgkl-1" value="Khách hàng&lt;div&gt;&lt;br&gt;&lt;/div&gt;" style="rounded=0;whiteSpace=wrap;html=1;" vertex="1" parent="1">
          <mxGeometry x="160" y="150" width="170" height="60" as="geometry" />
        </mxCell>
        <mxCell id="yIHm4vUGplaozeDYIgkl-2" value="" style="endArrow=none;html=1;rounded=0;exitX=0.359;exitY=-0.027;exitDx=0;exitDy=0;exitPerimeter=0;" edge="1" parent="1" source="yIHm4vUGplaozeDYIgkl-1" target="yIHm4vUGplaozeDYIgkl-3">
          <mxGeometry width="50" height="50" relative="1" as="geometry">
            <mxPoint x="470" y="240" as="sourcePoint" />
            <mxPoint x="120" y="90" as="targetPoint" />
            <Array as="points" />
          </mxGeometry>
        </mxCell>
        <mxCell id="yIHm4vUGplaozeDYIgkl-3" value="Tên" style="ellipse;whiteSpace=wrap;html=1;strokeWidth=1;" vertex="1" parent="1">
          <mxGeometry x="10" y="30" width="150" height="80" as="geometry" />
        </mxCell>
        <mxCell id="yIHm4vUGplaozeDYIgkl-4" value="SĐT" style="ellipse;whiteSpace=wrap;html=1;" vertex="1" parent="1">
          <mxGeometry x="190" y="30" width="120" height="80" as="geometry" />
        </mxCell>
        <mxCell id="yIHm4vUGplaozeDYIgkl-6" value="" style="endArrow=none;html=1;rounded=0;exitX=0.5;exitY=0;exitDx=0;exitDy=0;entryX=0.5;entryY=1;entryDx=0;entryDy=0;" edge="1" parent="1" source="yIHm4vUGplaozeDYIgkl-1" target="yIHm4vUGplaozeDYIgkl-4">
          <mxGeometry width="50" height="50" relative="1" as="geometry">
            <mxPoint x="225" y="150" as="sourcePoint" />
            <mxPoint x="275" y="100" as="targetPoint" />
          </mxGeometry>
        </mxCell>
        <mxCell id="yIHm4vUGplaozeDYIgkl-7" value="" style="endArrow=none;html=1;rounded=0;" edge="1" parent="1" target="yIHm4vUGplaozeDYIgkl-8">
          <mxGeometry width="50" height="50" relative="1" as="geometry">
            <mxPoint x="310" y="150" as="sourcePoint" />
            <mxPoint x="360" y="100" as="targetPoint" />
            <Array as="points">
              <mxPoint x="330" y="130" />
            </Array>
          </mxGeometry>
        </mxCell>
        <mxCell id="yIHm4vUGplaozeDYIgkl-8" value="email" style="ellipse;whiteSpace=wrap;html=1;" vertex="1" parent="1">
          <mxGeometry x="329.9999999999998" y="30" width="120" height="80" as="geometry" />
        </mxCell>
        <mxCell id="yIHm4vUGplaozeDYIgkl-9" value="&lt;u&gt;mã khách hàng&lt;/u&gt;" style="ellipse;whiteSpace=wrap;html=1;" vertex="1" parent="1">
          <mxGeometry x="-30" y="130" width="120" height="80" as="geometry" />
        </mxCell>
        <mxCell id="yIHm4vUGplaozeDYIgkl-10" value="" style="endArrow=none;html=1;rounded=0;exitX=1;exitY=0.5;exitDx=0;exitDy=0;" edge="1" parent="1" source="yIHm4vUGplaozeDYIgkl-9">
          <mxGeometry width="50" height="50" relative="1" as="geometry">
            <mxPoint x="110" y="210" as="sourcePoint" />
            <mxPoint x="160" y="160" as="targetPoint" />
          </mxGeometry>
        </mxCell>
        <mxCell id="yIHm4vUGplaozeDYIgkl-11" style="edgeStyle=orthogonalEdgeStyle;rounded=0;orthogonalLoop=1;jettySize=auto;html=1;exitX=0.5;exitY=1;exitDx=0;exitDy=0;" edge="1" parent="1" source="yIHm4vUGplaozeDYIgkl-9" target="yIHm4vUGplaozeDYIgkl-9">
          <mxGeometry relative="1" as="geometry" />
        </mxCell>
        <mxCell id="yIHm4vUGplaozeDYIgkl-12" value="Căn cước công dân" style="ellipse;whiteSpace=wrap;html=1;fontStyle=4" vertex="1" parent="1">
          <mxGeometry y="240" width="120" height="80" as="geometry" />
        </mxCell>
        <mxCell id="yIHm4vUGplaozeDYIgkl-13" value="" style="endArrow=none;html=1;rounded=0;exitX=1;exitY=0;exitDx=0;exitDy=0;" edge="1" parent="1" source="yIHm4vUGplaozeDYIgkl-12">
          <mxGeometry width="50" height="50" relative="1" as="geometry">
            <mxPoint x="110" y="240" as="sourcePoint" />
            <mxPoint x="160" y="190" as="targetPoint" />
          </mxGeometry>
        </mxCell>
        <mxCell id="yIHm4vUGplaozeDYIgkl-14" value="Năm sinh" style="ellipse;whiteSpace=wrap;html=1;" vertex="1" parent="1">
          <mxGeometry x="150" y="250" width="120" height="80" as="geometry" />
        </mxCell>
        <mxCell id="yIHm4vUGplaozeDYIgkl-15" value="" style="endArrow=none;html=1;rounded=0;entryX=0.422;entryY=1.044;entryDx=0;entryDy=0;entryPerimeter=0;exitX=0.5;exitY=0;exitDx=0;exitDy=0;" edge="1" parent="1" source="yIHm4vUGplaozeDYIgkl-14" target="yIHm4vUGplaozeDYIgkl-1">
          <mxGeometry width="50" height="50" relative="1" as="geometry">
            <mxPoint x="180" y="250" as="sourcePoint" />
            <mxPoint x="230" y="200" as="targetPoint" />
          </mxGeometry>
        </mxCell>
      </root>
    </mxGraphModel>
  </diagram>
</mxfile>
